<mxfile host="Electron" modified="2023-10-18T06:07:09.505Z" agent="Mozilla/5.0 (Windows NT 10.0; Win64; x64) AppleWebKit/537.36 (KHTML, like Gecko) draw.io/22.0.2 Chrome/114.0.5735.289 Electron/25.8.4 Safari/537.36" etag="F8s62S_pMvP9V8xUixjK" version="22.0.2" type="device">
  <diagram name="第 1 页" id="eZQF1c5x2mLU32fPpuJB">
    <mxGraphModel dx="1418" dy="828" grid="1" gridSize="10" guides="1" tooltips="1" connect="1" arrows="1" fold="1" page="1" pageScale="1" pageWidth="1169" pageHeight="827" math="0" shadow="0">
      <root>
        <mxCell id="0" />
        <mxCell id="1" parent="0" />
        <mxCell id="PdpALxIE_Vfg6-FUhdZM-7" style="edgeStyle=orthogonalEdgeStyle;rounded=0;orthogonalLoop=1;jettySize=auto;html=1;entryX=0;entryY=0.5;entryDx=0;entryDy=0;exitX=1;exitY=0.5;exitDx=0;exitDy=0;" edge="1" parent="1" source="U8KYt7RVROfg-5At9Apa-1" target="PdpALxIE_Vfg6-FUhdZM-4">
          <mxGeometry relative="1" as="geometry" />
        </mxCell>
        <mxCell id="U8KYt7RVROfg-5At9Apa-1" value="bootstarp" style="rounded=1;whiteSpace=wrap;html=1;strokeColor=#9933FF;" parent="1" vertex="1">
          <mxGeometry x="480" y="140" width="210" height="60" as="geometry" />
        </mxCell>
        <mxCell id="PdpALxIE_Vfg6-FUhdZM-12" value="" style="edgeStyle=orthogonalEdgeStyle;rounded=0;orthogonalLoop=1;jettySize=auto;html=1;" edge="1" parent="1" source="U8KYt7RVROfg-5At9Apa-2" target="PdpALxIE_Vfg6-FUhdZM-6">
          <mxGeometry relative="1" as="geometry" />
        </mxCell>
        <mxCell id="U8KYt7RVROfg-5At9Apa-2" value="rdi" style="rounded=1;whiteSpace=wrap;html=1;strokeColor=#9933FF;" parent="1" vertex="1">
          <mxGeometry x="480" y="230" width="210" height="60" as="geometry" />
        </mxCell>
        <mxCell id="PdpALxIE_Vfg6-FUhdZM-1" value="dll" style="rounded=1;whiteSpace=wrap;html=1;strokeColor=#007FFF;" vertex="1" parent="1">
          <mxGeometry x="480" y="570" width="210" height="90" as="geometry" />
        </mxCell>
        <mxCell id="PdpALxIE_Vfg6-FUhdZM-2" value="user data" style="rounded=1;whiteSpace=wrap;html=1;strokeColor=#FF3399;" vertex="1" parent="1">
          <mxGeometry x="480" y="680" width="210" height="60" as="geometry" />
        </mxCell>
        <mxCell id="PdpALxIE_Vfg6-FUhdZM-8" style="edgeStyle=orthogonalEdgeStyle;rounded=0;orthogonalLoop=1;jettySize=auto;html=1;entryX=0.5;entryY=0;entryDx=0;entryDy=0;" edge="1" parent="1" source="PdpALxIE_Vfg6-FUhdZM-4" target="PdpALxIE_Vfg6-FUhdZM-5">
          <mxGeometry relative="1" as="geometry" />
        </mxCell>
        <mxCell id="PdpALxIE_Vfg6-FUhdZM-4" value="获取内存位置" style="rounded=1;whiteSpace=wrap;html=1;fillColor=#dae8fc;strokeColor=#6c8ebf;" vertex="1" parent="1">
          <mxGeometry x="830" y="155" width="170" height="30" as="geometry" />
        </mxCell>
        <mxCell id="PdpALxIE_Vfg6-FUhdZM-9" style="edgeStyle=orthogonalEdgeStyle;rounded=0;orthogonalLoop=1;jettySize=auto;html=1;entryX=1;entryY=0.5;entryDx=0;entryDy=0;" edge="1" parent="1" source="PdpALxIE_Vfg6-FUhdZM-5" target="U8KYt7RVROfg-5At9Apa-2">
          <mxGeometry relative="1" as="geometry" />
        </mxCell>
        <mxCell id="PdpALxIE_Vfg6-FUhdZM-10" value="转交执行权" style="edgeLabel;html=1;align=center;verticalAlign=middle;resizable=0;points=[];" vertex="1" connectable="0" parent="PdpALxIE_Vfg6-FUhdZM-9">
          <mxGeometry x="-0.1571" y="1" relative="1" as="geometry">
            <mxPoint as="offset" />
          </mxGeometry>
        </mxCell>
        <mxCell id="PdpALxIE_Vfg6-FUhdZM-5" value="设置和计算寄存器" style="rounded=1;whiteSpace=wrap;html=1;fillColor=#dae8fc;strokeColor=#6c8ebf;" vertex="1" parent="1">
          <mxGeometry x="830" y="245" width="170" height="30" as="geometry" />
        </mxCell>
        <mxCell id="PdpALxIE_Vfg6-FUhdZM-15" value="" style="edgeStyle=orthogonalEdgeStyle;rounded=0;orthogonalLoop=1;jettySize=auto;html=1;" edge="1" parent="1" source="PdpALxIE_Vfg6-FUhdZM-6" target="PdpALxIE_Vfg6-FUhdZM-14">
          <mxGeometry relative="1" as="geometry" />
        </mxCell>
        <mxCell id="PdpALxIE_Vfg6-FUhdZM-6" value="计算用户传入的函数哈希，参数和dll起始位置" style="rounded=1;whiteSpace=wrap;html=1;fillColor=#dae8fc;strokeColor=#6c8ebf;" vertex="1" parent="1">
          <mxGeometry x="500" y="330" width="170" height="30" as="geometry" />
        </mxCell>
        <mxCell id="PdpALxIE_Vfg6-FUhdZM-21" value="" style="edgeStyle=orthogonalEdgeStyle;rounded=0;orthogonalLoop=1;jettySize=auto;html=1;" edge="1" parent="1" source="PdpALxIE_Vfg6-FUhdZM-14" target="PdpALxIE_Vfg6-FUhdZM-18">
          <mxGeometry relative="1" as="geometry" />
        </mxCell>
        <mxCell id="PdpALxIE_Vfg6-FUhdZM-14" value="重新映射dll节" style="rounded=1;whiteSpace=wrap;html=1;fillColor=#dae8fc;strokeColor=#6c8ebf;" vertex="1" parent="1">
          <mxGeometry x="500" y="399" width="170" height="30" as="geometry" />
        </mxCell>
        <mxCell id="PdpALxIE_Vfg6-FUhdZM-19" style="edgeStyle=orthogonalEdgeStyle;rounded=0;orthogonalLoop=1;jettySize=auto;html=1;entryX=1;entryY=0.5;entryDx=0;entryDy=0;" edge="1" parent="1" source="PdpALxIE_Vfg6-FUhdZM-18" target="PdpALxIE_Vfg6-FUhdZM-1">
          <mxGeometry relative="1" as="geometry">
            <Array as="points">
              <mxPoint x="710" y="490" />
              <mxPoint x="710" y="615" />
            </Array>
          </mxGeometry>
        </mxCell>
        <mxCell id="PdpALxIE_Vfg6-FUhdZM-23" value="调用导出函数" style="edgeLabel;html=1;align=center;verticalAlign=middle;resizable=0;points=[];fontSize=14;" vertex="1" connectable="0" parent="PdpALxIE_Vfg6-FUhdZM-19">
          <mxGeometry x="0.1043" y="5" relative="1" as="geometry">
            <mxPoint as="offset" />
          </mxGeometry>
        </mxCell>
        <mxCell id="PdpALxIE_Vfg6-FUhdZM-18" value="" style="rhombus;whiteSpace=wrap;html=1;" vertex="1" parent="1">
          <mxGeometry x="545" y="450" width="80" height="80" as="geometry" />
        </mxCell>
        <mxCell id="PdpALxIE_Vfg6-FUhdZM-20" style="edgeStyle=orthogonalEdgeStyle;rounded=0;orthogonalLoop=1;jettySize=auto;html=1;entryX=-0.014;entryY=0.644;entryDx=0;entryDy=0;entryPerimeter=0;" edge="1" parent="1" source="PdpALxIE_Vfg6-FUhdZM-18" target="PdpALxIE_Vfg6-FUhdZM-1">
          <mxGeometry relative="1" as="geometry">
            <Array as="points">
              <mxPoint x="450" y="490" />
              <mxPoint x="450" y="628" />
            </Array>
          </mxGeometry>
        </mxCell>
        <mxCell id="PdpALxIE_Vfg6-FUhdZM-22" value="调用DllMain" style="edgeLabel;html=1;align=center;verticalAlign=middle;resizable=0;points=[];fontSize=14;" vertex="1" connectable="0" parent="PdpALxIE_Vfg6-FUhdZM-20">
          <mxGeometry x="0.0997" y="-2" relative="1" as="geometry">
            <mxPoint as="offset" />
          </mxGeometry>
        </mxCell>
      </root>
    </mxGraphModel>
  </diagram>
</mxfile>
